<?xml version="1.0" standalone="no"?>
<!DOCTYPE svg PUBLIC "-//W3C//DTD SVG 20010904//EN"
 "http://www.w3.org/TR/2001/REC-SVG-20010904/DTD/svg10.dtd">
<svg version="1.0" xmlns="http://www.w3.org/2000/svg"
 width="925.000000pt" height="925.000000pt" viewBox="0 0 925.000000 925.000000"
 preserveAspectRatio="xMidYMid meet">
<metadata>
Created by potrace 1.11, written by Peter Selinger 2001-2013
</metadata>
<g transform="translate(0.000000,925.000000) scale(0.100000,-0.100000)"
fill="#000000" stroke="none">
<path d="M4479 7992 c-18 -32 -39 -66 -45 -77 -5 -11 -53 -94 -106 -185 -123
-214 -246 -426 -268 -464 -10 -17 -109 -188 -220 -381 -111 -192 -211 -366
-222 -385 -25 -44 -389 -673 -416 -720 -64 -110 -127 -225 -125 -230 1 -4 101
-179 223 -391 221 -382 261 -451 287 -499 8 -14 22 -38 32 -55 25 -41 348
-599 379 -655 13 -25 28 -49 32 -55 4 -5 19 -30 32 -55 14 -25 76 -132 138
-239 61 -107 124 -215 138 -240 14 -25 48 -84 76 -131 28 -47 57 -98 65 -113
8 -14 17 -24 22 -22 4 3 30 45 57 93 27 48 79 138 115 201 37 62 67 115 67
118 0 2 11 20 24 41 13 20 177 303 364 627 187 325 348 604 358 622 72 123
220 379 223 387 2 5 25 44 52 88 27 44 49 81 49 82 0 2 29 53 65 115 l64 111
-99 171 c-55 94 -100 173 -100 175 0 3 -58 103 -90 154 -5 8 -24 42 -43 75
-53 93 -63 110 -257 445 -100 173 -196 340 -213 370 -16 30 -41 71 -54 90 -12
19 -23 38 -23 41 0 4 -17 36 -38 70 -37 61 -169 289 -217 374 -13 22 -83 144
-157 272 l-134 231 -35 -56z m98 -812 c17 -30 51 -95 78 -145 26 -49 56 -103
65 -120 10 -16 46 -84 80 -150 35 -66 70 -133 80 -150 9 -16 38 -70 65 -120
26 -49 62 -117 80 -150 93 -171 147 -277 143 -280 -1 -1 -77 38 -168 87 -91
49 -217 116 -280 150 -63 33 -130 69 -148 81 l-34 20 -484 -484 c-267 -266
-487 -486 -491 -489 -3 -3 6 15 20 40 13 25 48 90 77 145 29 55 87 163 128
240 42 77 93 172 114 210 21 39 41 77 45 85 6 13 60 114 173 325 21 39 57 106
80 150 23 44 55 103 70 130 55 100 217 403 247 463 19 37 21 36 60 -38z"/>
<path d="M6579 6087 c-13 -28 -161 -285 -279 -487 -37 -62 -397 -688 -438
-760 -10 -19 -43 -75 -72 -125 -29 -49 -64 -110 -78 -135 -13 -25 -40 -72 -60
-105 -19 -33 -42 -73 -52 -90 -9 -16 -68 -118 -130 -225 -61 -107 -122 -213
-135 -235 -12 -22 -46 -80 -75 -130 -29 -49 -64 -110 -78 -135 -51 -90 -462
-805 -472 -820 -5 -8 -17 -28 -25 -43 -17 -29 -20 -22 105 -237 4 -8 127 -220
271 -471 l263 -457 1933 0 1933 0 -19 32 c-23 38 -91 157 -121 211 -12 22 -53
93 -91 157 -38 64 -69 119 -69 121 0 3 -17 34 -38 68 -37 61 -159 272 -214
369 -14 25 -67 117 -118 205 -51 88 -102 176 -113 195 -27 49 -342 596 -515
895 -80 138 -156 270 -170 295 -14 25 -100 176 -192 335 -92 160 -178 308
-190 330 -12 22 -26 45 -30 50 -4 6 -21 35 -37 65 -17 30 -115 201 -218 380
-104 179 -200 346 -214 371 -106 187 -236 409 -241 409 -3 -1 -12 -15 -21 -33z
m46 -719 c24 -45 170 -319 273 -508 126 -234 332 -622 332 -626 0 -4 -53 24
-215 111 -33 17 -105 56 -160 86 -55 29 -118 63 -140 76 -51 29 -108 57 -117
57 -4 1 -226 -217 -494 -484 l-487 -485 50 95 c28 52 70 131 93 175 23 44 55
103 70 130 15 28 47 86 70 130 23 44 63 118 88 165 24 47 53 99 62 115 10 17
41 75 70 130 29 55 79 147 110 205 68 125 116 214 198 370 33 63 74 140 91
170 17 30 40 74 52 98 12 23 22 42 24 42 2 0 15 -23 30 -52z"/>
<path d="M2576 5668 c-26 -46 -51 -90 -56 -98 -8 -12 -135 -231 -200 -345 -54
-95 -567 -985 -643 -1115 -49 -85 -99 -172 -111 -193 -11 -21 -31 -54 -43 -75
-12 -20 -30 -50 -39 -67 -9 -16 -64 -111 -122 -210 -57 -99 -116 -200 -130
-225 -40 -72 -354 -616 -422 -730 -14 -25 -29 -52 -33 -60 -4 -8 -15 -28 -26
-45 -10 -16 -71 -122 -136 -235 -65 -113 -168 -290 -228 -395 -61 -104 -126
-217 -145 -250 -19 -33 -43 -76 -54 -95 -11 -19 -54 -93 -94 -163 -41 -70 -73
-131 -70 -135 2 -4 1176 -7 2608 -7 2174 1 2603 3 2600 14 -2 8 -54 102 -116
210 -63 108 -123 212 -134 231 -17 31 -362 628 -595 1030 -49 85 -101 175
-114 200 -14 25 -40 70 -58 100 -18 30 -76 132 -130 225 -54 94 -121 211 -150
260 -53 90 -378 652 -399 690 -11 20 -153 266 -190 328 -10 18 -105 183 -211
367 -178 308 -306 531 -359 621 -12 20 -48 84 -81 143 -33 58 -63 106 -66 106
-3 0 -27 -37 -53 -82z m159 -983 c59 -110 130 -243 158 -295 27 -52 60 -113
72 -135 94 -172 285 -533 285 -539 0 -4 -15 1 -32 12 -18 11 -73 41 -123 67
-105 56 -141 75 -333 180 -79 42 -145 76 -147 74 -2 -2 -221 -220 -486 -484
-266 -264 -480 -472 -476 -462 4 10 91 175 193 365 103 191 201 374 219 407
47 88 181 338 227 425 22 41 53 98 68 125 15 28 45 84 67 125 22 41 54 100 70
130 16 30 49 92 73 138 24 45 47 79 51 75 4 -5 55 -98 114 -208z"/>
</g>
</svg>
